<?xml version="1.0" encoding="UTF-8"?>
<svg xmlns="http://www.w3.org/2000/svg" xmlns:xlink="http://www.w3.org/1999/xlink" width="2001" height="2001" viewBox="0 0 2001 2001">
<path fill-rule="evenodd" fill="rgb(78.125%, 98.4375%, 100%)" fill-opacity="1" d="M 607.476562 284.929688 L 1005.980469 284.929688 C 1006.25 345.730469 1055.609375 394.941406 1116.480469 394.941406 C 1177.339844 394.941406 1226.699219 345.730469 1226.96875 284.929688 L 1625.480469 284.929688 C 1680.480469 284.929688 1725.480469 329.929688 1725.480469 384.929688 L 1725.480469 1768.933594 C 1725.480469 1823.933594 1680.480469 1868.933594 1625.480469 1868.933594 L 607.476562 1868.933594 C 552.476562 1868.933594 507.476562 1823.933594 507.476562 1768.933594 L 507.476562 384.929688 C 507.476562 329.929688 552.476562 284.929688 607.476562 284.929688 "/>
<path fill-rule="nonzero" fill="rgb(0%, 0%, 0%)" fill-opacity="1" d="M 607.476562 259.421875 L 1031.28125 259.421875 L 1031.390625 284.828125 C 1031.488281 308.210938 1041.058594 329.378906 1056.460938 344.710938 C 1071.800781 359.980469 1093.011719 369.421875 1116.480469 369.421875 C 1139.941406 369.421875 1161.148438 359.980469 1176.488281 344.710938 C 1191.890625 329.378906 1201.460938 308.210938 1201.558594 284.828125 L 1201.671875 259.421875 L 1625.480469 259.421875 C 1660.019531 259.421875 1691.398438 273.53125 1714.140625 296.269531 C 1736.871094 319.011719 1750.988281 350.390625 1750.988281 384.929688 L 1750.988281 1768.933594 C 1750.988281 1803.476562 1736.871094 1834.859375 1714.140625 1857.59375 C 1691.398438 1880.332031 1660.019531 1894.445312 1625.480469 1894.445312 L 607.476562 1894.445312 C 572.933594 1894.445312 541.546875 1880.332031 518.8125 1857.59375 C 496.074219 1834.859375 481.964844 1803.476562 481.964844 1768.933594 L 481.964844 384.929688 C 481.964844 350.390625 496.074219 319.011719 518.8125 296.269531 C 541.546875 273.53125 572.933594 259.421875 607.476562 259.421875 Z M 983.050781 310.441406 L 607.476562 310.441406 C 587.015625 310.441406 568.402344 318.828125 554.886719 332.339844 C 541.375 345.859375 532.988281 364.46875 532.988281 384.929688 L 532.988281 1768.933594 C 532.988281 1789.390625 541.375 1808.007812 554.886719 1821.519531 C 568.402344 1835.03125 587.019531 1843.421875 607.476562 1843.421875 L 1625.480469 1843.421875 C 1645.929688 1843.421875 1664.550781 1835.03125 1678.058594 1821.519531 C 1691.578125 1808.007812 1699.960938 1789.390625 1699.960938 1768.933594 L 1699.960938 384.929688 C 1699.960938 364.46875 1691.578125 345.859375 1678.058594 332.339844 C 1664.550781 318.828125 1645.929688 310.441406 1625.480469 310.441406 L 1249.898438 310.441406 C 1244.628906 337.671875 1231.25 361.988281 1212.371094 380.789062 C 1187.75 405.300781 1153.851562 420.449219 1116.480469 420.449219 C 1079.101562 420.449219 1045.199219 405.300781 1020.578125 380.789062 C 1001.710938 361.988281 988.324219 337.671875 983.050781 310.441406 "/>
<path fill-rule="evenodd" fill="rgb(90.234375%, 90.234375%, 90.234375%)" fill-opacity="1" d="M 645.476562 284.929688 L 1005.980469 284.929688 C 1006.25 345.730469 1055.609375 394.941406 1116.480469 394.941406 C 1177.339844 394.941406 1226.699219 345.730469 1226.96875 284.929688 L 1587.480469 284.929688 L 1587.480469 1661.933594 C 1587.480469 1703.183594 1553.730469 1736.933594 1512.480469 1736.933594 L 720.476562 1736.933594 C 679.226562 1736.933594 645.476562 1703.183594 645.476562 1661.933594 L 645.476562 284.929688 "/>
<path fill-rule="nonzero" fill="rgb(0%, 0%, 0%)" fill-opacity="1" d="M 645.476562 259.421875 L 1031.28125 259.421875 L 1031.390625 284.828125 C 1031.488281 308.210938 1041.058594 329.378906 1056.460938 344.710938 C 1071.800781 359.980469 1093.011719 369.421875 1116.480469 369.421875 C 1139.941406 369.421875 1161.148438 359.980469 1176.488281 344.710938 C 1191.890625 329.378906 1201.460938 308.210938 1201.558594 284.828125 L 1201.671875 259.421875 L 1612.988281 259.421875 L 1612.988281 1661.933594 C 1612.988281 1689.601562 1601.691406 1714.734375 1583.480469 1732.9375 C 1565.28125 1751.144531 1540.140625 1762.445312 1512.480469 1762.445312 L 720.476562 1762.445312 C 692.808594 1762.445312 667.675781 1751.144531 649.46875 1732.9375 C 631.265625 1714.734375 619.964844 1689.601562 619.964844 1661.933594 L 619.964844 259.421875 Z M 983.050781 310.441406 L 670.988281 310.441406 L 670.988281 1661.933594 C 670.988281 1675.515625 676.5625 1687.882812 685.542969 1696.863281 C 694.527344 1705.84375 706.894531 1711.421875 720.476562 1711.421875 L 1512.480469 1711.421875 C 1526.058594 1711.421875 1538.421875 1705.84375 1547.410156 1696.863281 C 1556.390625 1687.882812 1561.960938 1675.515625 1561.960938 1661.933594 L 1561.960938 310.441406 L 1249.898438 310.441406 C 1244.628906 337.671875 1231.25 361.988281 1212.371094 380.789062 C 1187.75 405.300781 1153.851562 420.449219 1116.480469 420.449219 C 1079.101562 420.449219 1045.199219 405.300781 1020.578125 380.789062 C 1001.710938 361.988281 988.324219 337.671875 983.050781 310.441406 "/>
<path fill-rule="evenodd" fill="rgb(5.880737%, 59.959412%, 63.867188%)" fill-opacity="1" d="M 893.476562 246.929688 L 919.433594 246.929688 L 951.804688 167.929688 C 963.070312 140.429688 998.59375 117.929688 1030.738281 117.929688 L 1202.210938 117.929688 C 1234.359375 117.929688 1269.878906 140.429688 1281.148438 167.929688 L 1313.519531 246.929688 L 1339.480469 246.929688 C 1366.980469 246.929688 1389.480469 269.429688 1389.480469 296.929688 L 1389.480469 400.929688 C 1389.480469 428.429688 1366.980469 450.929688 1339.480469 450.929688 L 893.476562 450.929688 C 865.976562 450.929688 843.476562 428.429688 843.476562 400.929688 L 843.476562 296.929688 C 843.476562 269.429688 865.976562 246.929688 893.476562 246.929688 Z M 1116.480469 218.429688 C 1152.929688 218.429688 1182.480469 247.980469 1182.480469 284.429688 C 1182.480469 320.890625 1152.929688 350.429688 1116.480469 350.429688 C 1080.019531 350.429688 1050.480469 320.890625 1050.480469 284.429688 C 1050.480469 247.980469 1080.019531 218.429688 1116.480469 218.429688 "/>
<path fill-rule="nonzero" fill="rgb(0%, 0%, 0%)" fill-opacity="1" d="M 893.476562 221.421875 L 902.40625 221.421875 L 928.285156 158.269531 C 935.964844 139.519531 951.328125 122.851562 969.890625 111.101562 C 988.078125 99.570312 1009.828125 92.421875 1030.738281 92.421875 L 1202.210938 92.421875 C 1223.121094 92.421875 1244.871094 99.570312 1263.058594 111.101562 C 1281.621094 122.851562 1296.980469 139.519531 1304.660156 158.269531 L 1330.539062 221.421875 L 1339.480469 221.421875 C 1360.269531 221.421875 1379.148438 229.910156 1392.828125 243.578125 C 1406.5 257.261719 1414.988281 276.140625 1414.988281 296.929688 L 1414.988281 400.929688 C 1414.988281 421.730469 1406.5 440.609375 1392.828125 454.28125 C 1379.148438 467.960938 1360.269531 476.449219 1339.480469 476.449219 L 893.476562 476.449219 C 872.683594 476.449219 853.800781 467.960938 840.125 454.28125 C 826.449219 440.609375 817.964844 421.730469 817.964844 400.929688 L 817.964844 296.929688 C 817.964844 276.140625 826.449219 257.261719 840.125 243.578125 C 853.800781 229.910156 872.683594 221.421875 893.476562 221.421875 Z M 919.433594 272.449219 L 893.476562 272.449219 C 886.769531 272.449219 880.652344 275.210938 876.199219 279.660156 C 871.75 284.109375 868.988281 290.230469 868.988281 296.929688 L 868.988281 400.929688 C 868.988281 407.640625 871.75 413.761719 876.199219 418.210938 C 880.652344 422.660156 886.769531 425.421875 893.476562 425.421875 L 1339.480469 425.421875 C 1346.179688 425.421875 1352.300781 422.660156 1356.75 418.210938 C 1361.199219 413.761719 1363.960938 407.640625 1363.960938 400.929688 L 1363.960938 296.929688 C 1363.960938 290.230469 1361.199219 284.109375 1356.75 279.660156 C 1352.300781 275.210938 1346.179688 272.449219 1339.480469 272.449219 L 1296.488281 272.449219 L 1290 256.601562 L 1257.628906 177.601562 C 1254.039062 168.839844 1246.011719 160.511719 1235.949219 154.148438 C 1225.53125 147.539062 1213.441406 143.449219 1202.210938 143.449219 L 1030.738281 143.449219 C 1019.511719 143.449219 1007.421875 147.539062 996.996094 154.148438 C 986.945312 160.511719 978.910156 168.839844 975.324219 177.601562 L 942.953125 256.601562 L 936.460938 272.449219 Z M 1116.480469 192.921875 C 1141.738281 192.921875 1164.621094 203.171875 1181.179688 219.730469 C 1197.738281 236.289062 1207.988281 259.171875 1207.988281 284.429688 C 1207.988281 309.699219 1197.738281 332.578125 1181.179688 349.140625 C 1164.621094 365.699219 1141.738281 375.949219 1116.480469 375.949219 C 1091.210938 375.949219 1068.328125 365.699219 1051.769531 349.140625 C 1035.210938 332.578125 1024.960938 309.699219 1024.960938 284.429688 C 1024.960938 259.171875 1035.210938 236.289062 1051.769531 219.730469 C 1068.328125 203.171875 1091.210938 192.921875 1116.480469 192.921875 Z M 1145.109375 255.800781 C 1137.78125 248.480469 1127.660156 243.949219 1116.480469 243.949219 C 1105.289062 243.949219 1095.171875 248.480469 1087.839844 255.800781 C 1080.519531 263.128906 1075.988281 273.25 1075.988281 284.429688 C 1075.988281 295.621094 1080.519531 305.738281 1087.839844 313.070312 C 1095.171875 320.390625 1105.289062 324.921875 1116.480469 324.921875 C 1127.660156 324.921875 1137.78125 320.390625 1145.109375 313.070312 C 1152.429688 305.738281 1156.960938 295.621094 1156.960938 284.429688 C 1156.960938 273.25 1152.429688 263.128906 1145.109375 255.800781 "/>
<path fill-rule="evenodd" fill="rgb(14.892578%, 78.514099%, 83.201599%)" fill-opacity="1" d="M 609.128906 1214.855469 C 793.929688 1214.855469 943.734375 1364.664062 943.734375 1549.460938 C 943.734375 1734.257812 793.929688 1884.066406 609.128906 1884.066406 C 424.332031 1884.066406 274.523438 1734.257812 274.523438 1549.460938 C 274.523438 1364.664062 424.332031 1214.855469 609.128906 1214.855469 "/>
<path fill-rule="nonzero" fill="rgb(0%, 0%, 0%)" fill-opacity="1" d="M 609.128906 1189.34375 C 708.570312 1189.34375 798.601562 1229.652344 863.769531 1294.820312 C 928.9375 1359.992188 969.246094 1450.019531 969.246094 1549.460938 C 969.246094 1648.902344 928.9375 1738.929688 863.769531 1804.101562 C 798.601562 1869.269531 708.570312 1909.578125 609.128906 1909.578125 C 509.691406 1909.578125 419.660156 1869.269531 354.492188 1804.101562 C 289.320312 1738.929688 249.011719 1648.902344 249.011719 1549.460938 C 249.011719 1450.019531 289.320312 1359.992188 354.492188 1294.820312 C 419.660156 1229.652344 509.691406 1189.34375 609.128906 1189.34375 Z M 827.695312 1330.898438 C 771.761719 1274.964844 694.488281 1240.367188 609.128906 1240.367188 C 523.773438 1240.367188 446.5 1274.964844 390.566406 1330.898438 C 334.632812 1386.828125 300.035156 1464.105469 300.035156 1549.460938 C 300.035156 1634.816406 334.632812 1712.089844 390.566406 1768.023438 C 446.5 1823.957031 523.773438 1858.554688 609.128906 1858.554688 C 694.484375 1858.554688 771.761719 1823.957031 827.695312 1768.023438 C 883.628906 1712.089844 918.222656 1634.816406 918.222656 1549.460938 C 918.222656 1464.105469 883.628906 1386.828125 827.695312 1330.898438 "/>
<path fill-rule="evenodd" fill="rgb(0%, 0%, 0%)" fill-opacity="1" d="M 876.566406 584.929688 L 1302.570312 584.929688 C 1317.421875 584.929688 1329.570312 597.078125 1329.570312 611.929688 C 1329.570312 626.78125 1317.421875 638.929688 1302.570312 638.929688 L 876.566406 638.929688 C 861.714844 638.929688 849.566406 626.78125 849.566406 611.929688 C 849.566406 597.078125 861.714844 584.929688 876.566406 584.929688 "/>
<path fill="none" stroke-width="5.6693" stroke-linecap="butt" stroke-linejoin="miter" stroke="rgb(0%, 0%, 0%)" stroke-opacity="1" stroke-miterlimit="22.9256" d="M 8765.664062 14160.703125 L 13025.703125 14160.703125 C 13174.21875 14160.703125 13295.703125 14039.21875 13295.703125 13890.703125 C 13295.703125 13742.1875 13174.21875 13620.703125 13025.703125 13620.703125 L 8765.664062 13620.703125 C 8617.148438 13620.703125 8495.664062 13742.1875 8495.664062 13890.703125 C 8495.664062 14039.21875 8617.148438 14160.703125 8765.664062 14160.703125 Z M 8765.664062 14160.703125 " transform="matrix(0.1, 0, 0, -0.1, 0, 2001)"/>
<path fill-rule="evenodd" fill="rgb(0%, 0%, 0%)" fill-opacity="1" d="M 770.316406 580.75 C 787.539062 580.75 801.5 594.710938 801.5 611.929688 C 801.5 629.148438 787.539062 643.109375 770.316406 643.109375 C 753.097656 643.109375 739.132812 629.148438 739.132812 611.929688 C 739.132812 594.710938 753.097656 580.75 770.316406 580.75 "/>
<path fill="none" stroke-width="5.6693" stroke-linecap="butt" stroke-linejoin="miter" stroke="rgb(0%, 0%, 0%)" stroke-opacity="1" stroke-miterlimit="22.9256" d="M 7703.164062 14202.5 C 7875.390625 14202.5 8015 14062.890625 8015 13890.703125 C 8015 13718.515625 7875.390625 13578.90625 7703.164062 13578.90625 C 7530.976562 13578.90625 7391.328125 13718.515625 7391.328125 13890.703125 C 7391.328125 14062.890625 7530.976562 14202.5 7703.164062 14202.5 Z M 7703.164062 14202.5 " transform="matrix(0.1, 0, 0, -0.1, 0, 2001)"/>
<path fill-rule="evenodd" fill="rgb(0%, 0%, 0%)" fill-opacity="1" d="M 1466.820312 584.929688 L 1375.320312 584.929688 C 1360.46875 584.929688 1348.320312 597.078125 1348.320312 611.929688 C 1348.320312 626.78125 1360.46875 638.929688 1375.320312 638.929688 L 1466.820312 638.929688 C 1481.671875 638.929688 1493.820312 626.78125 1493.820312 611.929688 C 1493.820312 597.078125 1481.671875 584.929688 1466.820312 584.929688 "/>
<path fill="none" stroke-width="5.6693" stroke-linecap="butt" stroke-linejoin="miter" stroke="rgb(0%, 0%, 0%)" stroke-opacity="1" stroke-miterlimit="22.9256" d="M 14668.203125 14160.703125 L 13753.203125 14160.703125 C 13604.6875 14160.703125 13483.203125 14039.21875 13483.203125 13890.703125 C 13483.203125 13742.1875 13604.6875 13620.703125 13753.203125 13620.703125 L 14668.203125 13620.703125 C 14816.71875 13620.703125 14938.203125 13742.1875 14938.203125 13890.703125 C 14938.203125 14039.21875 14816.71875 14160.703125 14668.203125 14160.703125 Z M 14668.203125 14160.703125 " transform="matrix(0.1, 0, 0, -0.1, 0, 2001)"/>
<path fill-rule="evenodd" fill="rgb(0%, 0%, 0%)" fill-opacity="1" d="M 876.566406 686.179688 L 1302.570312 686.179688 C 1317.421875 686.179688 1329.570312 698.328125 1329.570312 713.179688 C 1329.570312 728.03125 1317.421875 740.179688 1302.570312 740.179688 L 876.566406 740.179688 C 861.714844 740.179688 849.566406 728.03125 849.566406 713.179688 C 849.566406 698.328125 861.714844 686.179688 876.566406 686.179688 "/>
<path fill="none" stroke-width="5.6693" stroke-linecap="butt" stroke-linejoin="miter" stroke="rgb(0%, 0%, 0%)" stroke-opacity="1" stroke-miterlimit="22.9256" d="M 8765.664062 13148.203125 L 13025.703125 13148.203125 C 13174.21875 13148.203125 13295.703125 13026.71875 13295.703125 12878.203125 C 13295.703125 12729.6875 13174.21875 12608.203125 13025.703125 12608.203125 L 8765.664062 12608.203125 C 8617.148438 12608.203125 8495.664062 12729.6875 8495.664062 12878.203125 C 8495.664062 13026.71875 8617.148438 13148.203125 8765.664062 13148.203125 Z M 8765.664062 13148.203125 " transform="matrix(0.1, 0, 0, -0.1, 0, 2001)"/>
<path fill-rule="evenodd" fill="rgb(0%, 0%, 0%)" fill-opacity="1" d="M 876.566406 809.929688 L 1302.570312 809.929688 C 1317.421875 809.929688 1329.570312 822.078125 1329.570312 836.929688 C 1329.570312 851.78125 1317.421875 863.929688 1302.570312 863.929688 L 876.566406 863.929688 C 861.714844 863.929688 849.566406 851.78125 849.566406 836.929688 C 849.566406 822.078125 861.714844 809.929688 876.566406 809.929688 "/>
<path fill="none" stroke-width="5.6693" stroke-linecap="butt" stroke-linejoin="miter" stroke="rgb(0%, 0%, 0%)" stroke-opacity="1" stroke-miterlimit="22.9256" d="M 8765.664062 11910.703125 L 13025.703125 11910.703125 C 13174.21875 11910.703125 13295.703125 11789.21875 13295.703125 11640.703125 C 13295.703125 11492.1875 13174.21875 11370.703125 13025.703125 11370.703125 L 8765.664062 11370.703125 C 8617.148438 11370.703125 8495.664062 11492.1875 8495.664062 11640.703125 C 8495.664062 11789.21875 8617.148438 11910.703125 8765.664062 11910.703125 Z M 8765.664062 11910.703125 " transform="matrix(0.1, 0, 0, -0.1, 0, 2001)"/>
<path fill-rule="evenodd" fill="rgb(0%, 0%, 0%)" fill-opacity="1" d="M 770.316406 805.75 C 787.539062 805.75 801.5 819.710938 801.5 836.929688 C 801.5 854.148438 787.539062 868.109375 770.316406 868.109375 C 753.097656 868.109375 739.132812 854.148438 739.132812 836.929688 C 739.132812 819.710938 753.097656 805.75 770.316406 805.75 "/>
<path fill="none" stroke-width="5.6693" stroke-linecap="butt" stroke-linejoin="miter" stroke="rgb(0%, 0%, 0%)" stroke-opacity="1" stroke-miterlimit="22.9256" d="M 7703.164062 11952.5 C 7875.390625 11952.5 8015 11812.890625 8015 11640.703125 C 8015 11468.515625 7875.390625 11328.90625 7703.164062 11328.90625 C 7530.976562 11328.90625 7391.328125 11468.515625 7391.328125 11640.703125 C 7391.328125 11812.890625 7530.976562 11952.5 7703.164062 11952.5 Z M 7703.164062 11952.5 " transform="matrix(0.1, 0, 0, -0.1, 0, 2001)"/>
<path fill-rule="evenodd" fill="rgb(0%, 0%, 0%)" fill-opacity="1" d="M 1466.820312 809.929688 L 1375.320312 809.929688 C 1360.46875 809.929688 1348.320312 822.078125 1348.320312 836.929688 C 1348.320312 851.78125 1360.46875 863.929688 1375.320312 863.929688 L 1466.820312 863.929688 C 1481.671875 863.929688 1493.820312 851.78125 1493.820312 836.929688 C 1493.820312 822.078125 1481.671875 809.929688 1466.820312 809.929688 "/>
<path fill="none" stroke-width="5.6693" stroke-linecap="butt" stroke-linejoin="miter" stroke="rgb(0%, 0%, 0%)" stroke-opacity="1" stroke-miterlimit="22.9256" d="M 14668.203125 11910.703125 L 13753.203125 11910.703125 C 13604.6875 11910.703125 13483.203125 11789.21875 13483.203125 11640.703125 C 13483.203125 11492.1875 13604.6875 11370.703125 13753.203125 11370.703125 L 14668.203125 11370.703125 C 14816.71875 11370.703125 14938.203125 11492.1875 14938.203125 11640.703125 C 14938.203125 11789.21875 14816.71875 11910.703125 14668.203125 11910.703125 Z M 14668.203125 11910.703125 " transform="matrix(0.1, 0, 0, -0.1, 0, 2001)"/>
<path fill-rule="evenodd" fill="rgb(0%, 0%, 0%)" fill-opacity="1" d="M 876.566406 911.179688 L 1302.570312 911.179688 C 1317.421875 911.179688 1329.570312 923.328125 1329.570312 938.179688 C 1329.570312 953.03125 1317.421875 965.179688 1302.570312 965.179688 L 876.566406 965.179688 C 861.714844 965.179688 849.566406 953.03125 849.566406 938.179688 C 849.566406 923.328125 861.714844 911.179688 876.566406 911.179688 "/>
<path fill="none" stroke-width="5.6693" stroke-linecap="butt" stroke-linejoin="miter" stroke="rgb(0%, 0%, 0%)" stroke-opacity="1" stroke-miterlimit="22.9256" d="M 8765.664062 10898.203125 L 13025.703125 10898.203125 C 13174.21875 10898.203125 13295.703125 10776.71875 13295.703125 10628.203125 C 13295.703125 10479.6875 13174.21875 10358.203125 13025.703125 10358.203125 L 8765.664062 10358.203125 C 8617.148438 10358.203125 8495.664062 10479.6875 8495.664062 10628.203125 C 8495.664062 10776.71875 8617.148438 10898.203125 8765.664062 10898.203125 Z M 8765.664062 10898.203125 " transform="matrix(0.1, 0, 0, -0.1, 0, 2001)"/>
<path fill-rule="evenodd" fill="rgb(0%, 100%, 0%)" fill-opacity="1" d="M 702.371094 1716.558594 L 1080.980469 1317.640625 C 1102.378906 1295.089844 1101.449219 1259.121094 1078.890625 1237.71875 C 1056.339844 1216.3125 1020.371094 1217.253906 998.96875 1239.804688 L 668.734375 1587.753906 L 522.777344 1377.753906 C 505.03125 1352.222656 469.625 1345.851562 444.089844 1363.597656 C 418.558594 1381.34375 412.1875 1416.753906 429.933594 1442.285156 L 610.214844 1701.667969 C 613.109375 1707.882812 617.191406 1713.660156 622.445312 1718.648438 C 645 1740.054688 680.964844 1739.113281 702.371094 1716.558594 "/>
<path fill-rule="nonzero" fill="rgb(0%, 0%, 0%)" fill-opacity="1" d="M 684.371094 1698.5625 L 1062.539062 1300.101562 L 1062.941406 1299.605469 L 1062.980469 1299.636719 C 1068.550781 1293.515625 1071.210938 1285.65625 1071.011719 1277.847656 C 1070.828125 1270.878906 1068.300781 1263.957031 1063.480469 1258.378906 L 1060.851562 1255.753906 L 1060.890625 1255.722656 C 1054.769531 1250.148438 1046.910156 1247.484375 1039.101562 1247.6875 C 1031.171875 1247.894531 1023.300781 1251.132812 1017.398438 1257.34375 L 1017.011719 1257.84375 L 1017 1257.84375 L 1016.96875 1257.804688 L 687.171875 1605.292969 L 665.648438 1627.972656 L 647.808594 1602.300781 L 501.851562 1392.304688 C 496.953125 1385.257812 489.664062 1380.859375 481.871094 1379.460938 C 474.070312 1378.054688 465.714844 1379.621094 458.679688 1384.496094 L 458.640625 1384.523438 C 451.59375 1389.421875 447.199219 1396.710938 445.796875 1404.503906 C 444.390625 1412.320312 445.964844 1420.691406 450.859375 1427.734375 L 631.140625 1687.117188 L 632.132812 1688.546875 L 633.234375 1690.90625 C 634.035156 1692.621094 635.007812 1694.289062 636.152344 1695.878906 C 636.640625 1696.554688 637.179688 1697.230469 637.769531 1697.90625 L 637.796875 1697.921875 L 640.484375 1700.609375 L 640.453125 1700.644531 C 646.570312 1706.21875 654.433594 1708.882812 662.242188 1708.675781 C 670.167969 1708.46875 678.039062 1705.234375 683.9375 1699.019531 L 684.335938 1698.523438 Z M 1098.980469 1335.640625 L 720.808594 1734.101562 L 720.410156 1734.597656 L 720.367188 1734.558594 C 704.90625 1750.597656 684.285156 1758.957031 663.4375 1759.5 C 643.71875 1760.015625 623.789062 1753.472656 607.871094 1739.761719 L 607.570312 1739.609375 L 604.90625 1737.085938 L 604.410156 1736.6875 L 604.449219 1736.644531 C 600.960938 1733.277344 597.773438 1729.566406 594.894531 1725.574219 C 592.46875 1722.207031 590.324219 1718.683594 588.464844 1715.039062 L 409.007812 1456.835938 C 396.15625 1438.34375 392.042969 1416.246094 395.769531 1395.535156 C 399.117188 1376.933594 408.769531 1359.488281 424.078125 1346.816406 L 424.347656 1346.277344 L 429.539062 1342.667969 C 448.03125 1329.816406 470.128906 1325.707031 490.839844 1329.433594 C 511.570312 1333.160156 530.859375 1344.71875 543.707031 1363.203125 L 671.820312 1547.535156 L 980.53125 1222.265625 L 980.929688 1221.769531 L 980.929688 1221.765625 L 980.972656 1221.808594 C 996.429688 1205.769531 1017.050781 1197.410156 1037.898438 1196.863281 C 1057.621094 1196.351562 1077.550781 1202.894531 1093.46875 1216.605469 L 1094.238281 1216.988281 L 1096.929688 1219.679688 L 1096.890625 1219.722656 C 1112.929688 1235.183594 1121.289062 1255.804688 1121.828125 1276.652344 C 1122.378906 1297.613281 1114.949219 1318.8125 1099.421875 1335.179688 L 1099.019531 1335.679688 L 1098.980469 1335.640625 "/>
</svg>
